<svg xmlns="http://www.w3.org/2000/svg" version="1.1" xmlns:xlink="http://www.w3.org/1999/xlink" width="64" height="64"><svg id="SvgjsSvg1017" data-name="Layer 1" xmlns="http://www.w3.org/2000/svg" viewBox="0 0 64 64"><defs><style>.cls-1{fill:#8bc34a;}.cls-2{fill:#fff;}</style></defs><title>link-icon</title><circle class="cls-1" cx="32" cy="32" r="32"></circle><path class="cls-2" d="M37.18,27.13a10,10,0,0,1,2.58,4.56,10.17,10.17,0,0,1,0,5.14,9.61,9.61,0,0,1-2.58,4.49L32.7,45.8a9.59,9.59,0,0,1-4.49,2.57,10.17,10.17,0,0,1-5.14,0,10,10,0,0,1-7.13-7.12,10.17,10.17,0,0,1,0-5.14,9.61,9.61,0,0,1,2.58-4.49L21,29.11a.92.92,0,0,1,1.09-.19,1,1,0,0,1,.69.92,12.31,12.31,0,0,0,.66,3.49,1,1,0,0,1-.26,1.06l-.86.92a4.73,4.73,0,0,0-1.42,3.33,4.75,4.75,0,0,0,4.72,4.79A4.54,4.54,0,0,0,29,42l4.42-4.42a4.77,4.77,0,0,0,0-6.73,5.14,5.14,0,0,0-.72-.59.88.88,0,0,1-.4-.79,2.49,2.49,0,0,1,.73-2l1.45-1.39a1,1,0,0,1,.63-.29,1.14,1.14,0,0,1,.69.16C36.28,26.36,36.74,26.74,37.18,27.13Zm9.3-9.3a10.19,10.19,0,0,0-9.69-2.57,9.68,9.68,0,0,0-4.49,2.57l-4.48,4.49a9.58,9.58,0,0,0-2.58,4.48,10.21,10.21,0,0,0,0,5.15,10.05,10.05,0,0,0,2.58,4.55,16.46,16.46,0,0,0,1.38,1.12,1.15,1.15,0,0,0,.69.17.94.94,0,0,0,.63-.3L32,36.11a2.49,2.49,0,0,0,.73-2,.89.89,0,0,0-.4-.8,4.74,4.74,0,0,1-2.11-3.95A4.58,4.58,0,0,1,31.58,26L36,21.59a4.57,4.57,0,0,1,3.36-1.38A4.75,4.75,0,0,1,44.08,25a4.7,4.7,0,0,1-1.42,3.33l-.86.93a1,1,0,0,0-.26,1.05,12.38,12.38,0,0,1,.66,3.5,1,1,0,0,0,.69.92.91.91,0,0,0,1.09-.2l2.5-2.5a9.61,9.61,0,0,0,2.58-4.49,10.21,10.21,0,0,0,0-5.15A10.05,10.05,0,0,0,46.48,17.83Z"></path></svg><style>@media (prefers-color-scheme: light) { :root { filter: none; } }
@media (prefers-color-scheme: dark) { :root { filter: none; } }
</style></svg>